<svg preserveAspectRatio="none" overflow="visible" style="display: block;" width="1048.66" height="1048.62" viewBox="0 0 1048.66 1048.62" fill="none" xmlns="http://www.w3.org/2000/svg">
<g id="Group">
<path id="Vector" d="M661.04 1.33371e-06L642.373 1048.5L649.176 1048.62L667.844 0.12113L661.04 1.33371e-06Z" fill="#F59C25" style="fill:#F59C25;fill:color(display-p3 0.9608 0.6118 0.1451);fill-opacity:1;"/>
<path id="Vector_2" d="M681.855 0.809884L607.243 1046.82L614.03 1047.3L688.642 1.29402L681.855 0.809884Z" fill="#F59C25" style="fill:#F59C25;fill:color(display-p3 0.9608 0.6118 0.1451);fill-opacity:1;"/>
<path id="Vector_3" d="M702.528 2.57031L572.367 1043.13L579.118 1043.97L709.28 3.41488L702.528 2.57031Z" fill="#F59C25" style="fill:#F59C25;fill:color(display-p3 0.9608 0.6118 0.1451);fill-opacity:1;"/>
<path id="Vector_4" d="M723.174 5.6649L537.832 1037.82L544.529 1039.02L729.872 6.86753L723.174 5.6649Z" fill="#F59C25" style="fill:#F59C25;fill:color(display-p3 0.9608 0.6118 0.1451);fill-opacity:1;"/>
<path id="Vector_5" d="M743.38 9.5573L503.917 1030.52L510.542 1032.07L750.005 11.1111L743.38 9.5573Z" fill="#F59C25" style="fill:#F59C25;fill:color(display-p3 0.9608 0.6118 0.1451);fill-opacity:1;"/>
<path id="Vector_6" d="M763.478 14.7294L470.559 1021.65L477.092 1023.55L770.012 16.6301L763.478 14.7294Z" fill="#F59C25" style="fill:#F59C25;fill:color(display-p3 0.9608 0.6118 0.1451);fill-opacity:1;"/>
<path id="Vector_7" d="M783.01 20.7524L437.967 1011.03L444.392 1013.27L789.436 22.9913L783.01 20.7524Z" fill="#F59C25" style="fill:#F59C25;fill:color(display-p3 0.9608 0.6118 0.1451);fill-opacity:1;"/>
<path id="Vector_8" d="M802.154 27.83L406.095 998.827L412.395 1001.4L808.454 30.3999L802.154 27.83Z" fill="#F59C25" style="fill:#F59C25;fill:color(display-p3 0.9608 0.6118 0.1451);fill-opacity:1;"/>
<path id="Vector_9" d="M820.682 35.6308L375.176 984.958L381.336 987.849L826.841 38.5215L820.682 35.6308Z" fill="#F59C25" style="fill:#F59C25;fill:color(display-p3 0.9608 0.6118 0.1451);fill-opacity:1;"/>
<path id="Vector_10" d="M838.8 44.7079L345.028 969.849L351.031 973.053L844.803 47.9118L838.8 44.7079Z" fill="#F59C25" style="fill:#F59C25;fill:color(display-p3 0.9608 0.6118 0.1451);fill-opacity:1;"/>
<path id="Vector_11" d="M856.215 54.2254L315.956 953.012L321.788 956.518L862.047 57.7309L856.215 54.2254Z" fill="#F59C25" style="fill:#F59C25;fill:color(display-p3 0.9608 0.6118 0.1451);fill-opacity:1;"/>
<path id="Vector_12" d="M873.099 64.7098L287.908 934.91L293.554 938.707L878.745 68.5069L873.099 64.7098Z" fill="#F59C25" style="fill:#F59C25;fill:color(display-p3 0.9608 0.6118 0.1451);fill-opacity:1;"/>
<path id="Vector_13" d="M889.328 76.0365L260.86 915.516L266.307 919.594L894.775 80.1144L889.328 76.0365Z" fill="#F59C25" style="fill:#F59C25;fill:color(display-p3 0.9608 0.6118 0.1451);fill-opacity:1;"/>
<path id="Vector_14" d="M904.879 88.0897L234.885 894.815L240.12 899.162L910.114 92.4371L904.879 88.0897Z" fill="#F59C25" style="fill:#F59C25;fill:color(display-p3 0.9608 0.6118 0.1451);fill-opacity:1;"/>
<path id="Vector_15" d="M919.811 100.967L209.996 872.886L215.004 877.492L924.82 105.573L919.811 100.967Z" fill="#F59C25" style="fill:#F59C25;fill:color(display-p3 0.9608 0.6118 0.1451);fill-opacity:1;"/>
<path id="Vector_16" d="M933.982 114.456L186.278 849.735L191.049 854.587L938.753 119.307L933.982 114.456Z" fill="#F59C25" style="fill:#F59C25;fill:color(display-p3 0.9608 0.6118 0.1451);fill-opacity:1;"/>
<path id="Vector_17" d="M947.565 128.865L163.741 825.511L168.261 830.597L952.086 133.951L947.565 128.865Z" fill="#F59C25" style="fill:#F59C25;fill:color(display-p3 0.9608 0.6118 0.1451);fill-opacity:1;"/>
<path id="Vector_18" d="M960.39 143.584L142.553 799.968L146.812 805.275L964.649 148.891L960.39 143.584Z" fill="#F59C25" style="fill:#F59C25;fill:color(display-p3 0.9608 0.6118 0.1451);fill-opacity:1;"/>
<path id="Vector_19" d="M972.512 159.313L122.514 773.479L126.499 778.995L976.497 164.828L972.512 159.313Z" fill="#F59C25" style="fill:#F59C25;fill:color(display-p3 0.9608 0.6118 0.1451);fill-opacity:1;"/>
<path id="Vector_20" d="M983.804 175.533L103.822 745.909L107.523 751.618L987.505 181.243L983.804 175.533Z" fill="#F59C25" style="fill:#F59C25;fill:color(display-p3 0.9608 0.6118 0.1451);fill-opacity:1;"/>
<path id="Vector_21" d="M994.337 192.469L86.4419 717.276L89.8472 723.167L997.743 198.36L994.337 192.469Z" fill="#F59C25" style="fill:#F59C25;fill:color(display-p3 0.9608 0.6118 0.1451);fill-opacity:1;"/>
<path id="Vector_22" d="M1004.07 209.944L70.532 687.658L73.6317 693.715L1007.17 216.001L1004.07 209.944Z" fill="#F59C25" style="fill:#F59C25;fill:color(display-p3 0.9608 0.6118 0.1451);fill-opacity:1;"/>
<path id="Vector_23" d="M1012.98 227.862L56.1716 657.066L58.9566 663.275L1015.76 234.071L1012.98 227.862Z" fill="#F59C25" style="fill:#F59C25;fill:color(display-p3 0.9608 0.6118 0.1451);fill-opacity:1;"/>
<path id="Vector_24" d="M1020.89 246.672L43.1321 625.724L45.5916 632.068L1023.35 253.016L1020.89 246.672Z" fill="#F59C25" style="fill:#F59C25;fill:color(display-p3 0.9608 0.6118 0.1451);fill-opacity:1;"/>
<path id="Vector_25" d="M1027.97 265.74L31.8208 593.449L33.9472 599.912L1030.09 272.204L1027.97 265.74Z" fill="#F59C25" style="fill:#F59C25;fill:color(display-p3 0.9608 0.6118 0.1451);fill-opacity:1;"/>
<path id="Vector_26" d="M1034.05 285.39L22.1238 560.516L23.909 567.082L1035.84 291.957L1034.05 285.39Z" fill="#F59C25" style="fill:#F59C25;fill:color(display-p3 0.9608 0.6118 0.1451);fill-opacity:1;"/>
<path id="Vector_27" d="M1039.07 305.44L14.0547 526.87L15.4915 533.521L1040.51 312.091L1039.07 305.44Z" fill="#F59C25" style="fill:#F59C25;fill:color(display-p3 0.9608 0.6118 0.1451);fill-opacity:1;"/>
<path id="Vector_28" d="M1043.13 325.731L7.84082 492.67L8.92404 499.388L1044.22 332.449L1043.13 325.731Z" fill="#F59C25" style="fill:#F59C25;fill:color(display-p3 0.9608 0.6118 0.1451);fill-opacity:1;"/>
<path id="Vector_29" d="M1046.14 346.185L3.44971 457.985L4.17514 464.75L1046.86 352.951L1046.14 346.185Z" fill="#F59C25" style="fill:#F59C25;fill:color(display-p3 0.9608 0.6118 0.1451);fill-opacity:1;"/>
<path id="Vector_30" d="M1047.9 367.016L0.730713 422.995L1.09394 429.79L1048.26 373.81L1047.9 367.016Z" fill="#F59C25" style="fill:#F59C25;fill:color(display-p3 0.9608 0.6118 0.1451);fill-opacity:1;"/>
<path id="Vector_31" d="M1048.66 387.765H1.50451e-05V394.569H1048.66V387.765Z" fill="#F59C25" style="fill:#F59C25;fill:color(display-p3 0.9608 0.6118 0.1451);fill-opacity:1;"/>
</g>
</svg>
